<svg xmlns="http://www.w3.org/2000/svg" width="240" height="240" viewBox="0 0 240 240"><g data-part="limbs"><path d="M91 117 C76.89751664294552 135.69253828929118, 76.04909570707629 145.8988762796546, 92.10153749082238 151.11621948685496 M89.9902285406366 116.92188506927342 C76.82694432196828 136.17603239761976, 78.6131988367221 147.35104741252647, 92.75130573141388 150.68896107968874 M149 116 C166.0626103013133 116.66185469434906, 171.05461759064346 107.84571795072407, 164.71563773844392 90.54927242603154 M150.05119940135629 117.04630286898464 C162.3796311993183 119.14762229340461, 168.3723916007858 110.94496153024025, 166.32865707117134 92.50548251119443" fill="none" stroke="#282039" stroke-width="3.4" stroke-linecap="round" stroke-linejoin="round"/><path d="M104.27360523128883 173.3981195426546 C103.8579039714341 177.78868272486048, 101.3183739026119 183.36592822805886, 94.87561644995586 197.48165581887588 M103.69158658417874 174.07600489151665 C102.23102265252463 179.22960006632005, 99.50142630758425 185.077786115651, 94.9242441284936 198.28832651418634 M95.13751160586253 196.82272659009323 C98.75528473327681 202.70401757081413, 100.02803338798509 209.40228662659786, 104.49938696408644 213.50814341669903 M93.67308266046457 198.7731032852549 C98.16118924097084 202.41433116972, 101.23016430699192 208.02475503563434, 105.74412707420997 214.6579991896171 M106.00223432162187 213.96171045020853 C101.56127892604745 215.48455331682717, 97.69227340129245 215.0663055000052, 91.23416272984628 218.23034358244186 M106.05179834363129 213.49449626040948 C101.42426371492954 214.70037311323063, 95.79614021199664 216.6521877026821, 91.88937320639673 218.5498596534715 M135.393095637206 173.7195035702549 C140.41563897128265 180.6812385841379, 143.0364949872256 187.8506223915251, 150.28199602747335 203.03024216657505 M137.13412230792454 175.91792582613417 C140.61154800718901 183.0705337987842, 146.5076577753785 192.73237391734514, 151.3553672793787 202.73394288909623 M149.97247737732468 202.5299409303304 C148.51552936115834 207.95902413114126, 148.72158368552135 211.4477603904635, 147.33050368368885 215.98659976366378 M150.7463858619587 201.52344458551426 C149.70334861532132 206.3638127697656, 148.04557147148165 211.57463483990963, 146.8261829715076 214.54127889901358 M147.82242705535654 214.06598356170034 C153.51666100392887 216.7230982920607, 157.79503996469472 214.90477541333985, 160.86643224643876 216.8179498185853 M147.20108512939296 214.51170591573322 C149.96365194338549 215.86301700996523, 152.942676999402 215.45498476750993, 161.1102637785004 215.65579822274796" fill="none" stroke="#282039" stroke-width="3.4" stroke-linecap="round" stroke-linejoin="round"/></g><path d="M88 173 C86.72063508071005 118.10931428832313, 102.043344978864 93.97214141053458, 116.74399896897376 92.57423133216798 C143.12680709796646 93.77209260625143, 150.68219636318585 121.30064734381935, 152.90469458140433 170.5121389683336 C125.22329961620271 171.96862035681306, 101.12260375581681 173.50010609318315, 86.62683612667024 172.0066704992205" fill="#c0d5dd" stroke="none" stroke-width="0" stroke-linecap="round" stroke-linejoin="round"/><path d="M88 173 C86.2009444180876 119.52133883995316, 99.88047671156626 92.9580106810977, 118.10170832313597 92.76246609650552 M89.20025393404066 171.85765007697046 C90.0175307281129 118.73911007142937, 99.6155913000616 92.53431193984423, 119.34089525712653 89.95495675520971 M120 92 C142.26586329775552 91.95391262335082, 154.71624176738163 120.1063532785823, 152.050708598271 173.55474714003503 M118.8457771126181 92.10700318776071 C141.70977540664995 94.13532106674586, 152.25321288976198 120.30940170026696, 153.09350785685703 172.48775834577157 M153.72040733061732 173.58225622810423 C138.55386617146434 171.87815789662898, 120.97246867381037 175.0277483769566, 86.12758586369455 172.6972263995558 M151.18066007811575 173.04263072591274 C134.22281741220505 173.04593610442132, 116.93601680714637 172.38608808792085, 88.82231855709105 172.33906934242697" fill="none" stroke="#282039" stroke-width="3.4" stroke-linecap="round" stroke-linejoin="round"/><g data-part="face" transform="rotate(-10 120 59)"><path d="M121.9798428750263 27.488781931465056 C128.11669571950068 27.322886379172335, 136.72542718868317 30.979197884826274, 141.09258039688942 35.81273033144462 C145.45973360509566 40.64626277806296, 147.62515379317898 49.84121583235817, 148.18276212426372 56.48997661117512 C148.74037045534845 63.13873738999207, 147.93833190270132 70.27030869103908, 144.43823038339784 75.7052950043463 C140.93812886409435 81.14028131765352, 133.39159626912547 87.13942720048539, 127.18215300844278 89.0998944910184 C120.97270974776008 91.06036178155142, 112.70449979798263 90.31813590729932, 107.18157081930163 87.46809874754442 C101.65864184062062 84.61806158778951, 96.69857761960967 77.88037267844551, 94.04457913635676 71.99967153248897 C91.39058065310385 66.11897038653244, 89.78284042962989 58.494418794297275, 91.2575799197842 52.18389187180519 C92.73231940993853 45.8733649493131, 96.47364930823304 38.0191725951473, 102.89301607728271 34.13650999753644 C109.31238284633238 30.253847399925586, 124.41506448392722 29.062935993439226, 129.77378053408228 28.88791628614004 C135.13249658423734 28.712896578840855, 135.48952085567058 32.66093636657788, 135.04531237821305 33.08639175374133 M131.50881595660633 28.229717041221782 C137.53005960730013 29.96340185833557, 143.42271906844917 36.65078450307546, 146.20063402095525 42.741041762449754 C148.97854897346133 48.83129902182405, 149.41587897488395 57.92270462750816, 148.1763056716429 64.77126059746759 C146.93673236840183 71.61981656742702, 143.31545490038735 79.73344875444832, 138.76319420150895 83.83237758220633 C134.21093350263055 87.93130640996435, 127.11526945736148 89.60354036461614, 120.86274147837243 89.36483356401565 C114.61021349938338 89.12612676341517, 105.99379348108307 86.73151766346936, 101.24802632757468 82.40013677860347 C96.50225917406628 78.06875589373757, 93.30164287407145 69.80649301400658, 92.38813855732208 63.37654825482026 C91.47463424057271 56.94660349563394, 92.60582890587862 49.63192020361431, 95.76700042707846 43.82046822348557 C98.92817194827829 38.00901624335683, 105.40116455081142 30.833931911885124, 111.35516768452108 28.507836374047827 C117.30917081823074 26.18174083621053, 128.5314663228912 29.720773756145313, 131.49101922933644 29.863894996461784 C134.4505721357817 30.007016236778256, 129.43725546846534 28.703811735065923, 129.11248512319267 29.366563815946645" fill="#faf6eb" stroke="none" stroke-width="0" stroke-linecap="round" stroke-linejoin="round"/><path d="M121.77874981166659 27.565392322967032 C127.54950533051007 27.516894459560977, 135.17330907653553 31.80624450488737, 139.60404423453457 36.309313123057834 C144.0347793925336 40.81238174122829, 147.73072791936204 47.876523189976794, 148.36316075966084 54.58380403198981 C148.99559359995965 61.29108487400282, 146.80359146193015 70.9383779303076, 143.3986412763273 76.5529981751359 C139.99369109072447 82.1676184199642, 133.89197287756812 86.43050336908948, 127.93345964604379 88.27152550095965 C121.97494641451947 90.11254763282983, 113.43373182193645 90.16040707374549, 107.64756188718135 87.59913096635691 C101.86139195242626 85.03785485896833, 95.90039896157583 78.76347462558488, 93.21644003751324 72.90386885662814 C90.53248111345064 67.0442630876714, 89.92639260681018 58.81931533017316, 91.5438083428058 52.44149635261651 C93.16122407880142 46.06367737505986, 97.71836467991973 38.802150075418076, 102.92093445348698 34.636954991288235 C108.12350422705423 30.471759907158393, 119.39904382054331 28.32211571151791, 122.75922698420926 27.45032584783747 C126.11941014787521 26.57853598415703, 123.02070674493834 28.70561273007413, 123.08203343548264 29.4062158092056 M129.04851368593896 28.35618304053484 C134.68005374741762 29.73231973180107, 141.45598896988577 34.852398463828884, 144.54243744191467 40.52232587977397 C147.62888591394358 46.19225329571906, 148.1783285883317 55.38195914524506, 147.56720451811248 62.37574753620538 C146.95608044789324 69.3695359271657, 145.0326522960972 77.9801641772726, 140.87569302059933 82.48505622553587 C136.71873374510145 86.98994827379914, 128.90554222348328 89.23658894747717, 122.62544886512522 89.40509982578504 C116.34535550676716 89.57361070409291, 108.15411268281863 87.55601751337235, 103.195132870451 83.49612149538311 C98.23615305808337 79.43622547739386, 94.46704038485922 71.25124800545747, 92.87156999091948 65.04572371784953 C91.27609959697975 58.84019943024158, 91.04969274664673 51.9768210899515, 93.62231050681261 46.26297576973547 C96.1949282669785 40.54913044951944, 102.4847229325838 33.8203017919154, 108.30727655191481 30.762651796553353 C114.12983017124583 27.705001801191305, 125.32934089982723 28.13465901140166, 128.5576322227987 27.91707579756318 C131.78592354577017 27.699492583724698, 128.1089654290824 28.689936154060145, 127.67702448974362 29.457152513522477" fill="none" stroke="#282039" stroke-width="3.4" stroke-linecap="round" stroke-linejoin="round"/><path d="M100 45 C104.84593068802108 42.053574799063306, 109.97579225146522 40.86777047769477, 114.10089012626558 44.66728496607393 M125 44 C130.30470006310694 40.91007956719647, 135.05078814073156 40.72767458613962, 140.81539547089488 45.75477556642145" fill="none" stroke="#282039" stroke-width="2" stroke-linecap="round" stroke-linejoin="round"/><path d="M102.92882410250272 51.539485741536545 C105.17576036266136 52.668959609966, 106.79228679907499 54.03505691973201, 113.43955243814777 57.257523728479086 M112.5925640009674 57.03801226019279 C110.43585556589558 58.47958575118345, 107.76265950664437 59.15534658207995, 104.28869576178721 60.6963048452924 M137.83502789460326 51.940388664019025 C136.28679284180532 53.066862539712844, 134.2374462893783 53.567928327879315, 127.99562248125751 57.00121665520432 M128.37520631750505 56.83012051674077 C131.15769679955994 58.57877311652038, 134.31228904166392 60.25329007380861, 136.71554071746556 61.04503146668639" fill="none" stroke="#282039" stroke-width="2" stroke-linecap="round" stroke-linejoin="round"/><path d="M108 70 C115.88309929395716 74.75268527244528, 124.20411953950922 74.05429164941113, 136.2132186256349 66.2762780226767 C132.54355662688613 84.68860308701794, 128.55961344266933 87.10049109036724, 121.0455420576036 86.36066258326173 C112.3012900116543 85.90348589792848, 108.1677789054811 80.52221314484875, 107.13875645026565 71.91261077299714 C108 70, 108 70, 108 70" fill="#282039" stroke="none" stroke-width="0" stroke-linecap="round" stroke-linejoin="round"/><path d="M108 70 C116.5440455990533 72.69177856867512, 126.17662185008328 71.91332536960643, 134.10097104683518 67.17340178117156 M135 68 C133.2142182506621 82.19584437633554, 127.40389009291927 88.77867530609171, 119.86224960461259 86.25066425427795 M119 86 C113.15549050147335 83.41532995328308, 109.59217492714524 79.14257489467661, 107.56903368607163 69.42506036385893 M108 70 C108 70, 108 70, 108 70" fill="none" stroke="#282039" stroke-width="2" stroke-linecap="round" stroke-linejoin="round"/></g><g data-part="hands"><path d="M94 151 C102.89284718927617 153.6933402166081, 115.42559588945781 150.3391800180388, 124.10213540391996 143.5780826206319 M95.02531741755084 152.89706259621306 C106.64233007680781 153.07180425595337, 115.97323912507699 152.06580659147198, 126.81486907140817 145.17494594401214 M123.2623152759092 145.1223994002833 C125.3002888241087 144.28656397953173, 128.0782259896314 143.92009697207007, 131.3499888946856 143.7722012315575 M122.76188740704512 145.14571820298738 C124.57102574168215 144.55441780213818, 126.20133232824713 144.60815298388133, 130.95015571858164 143.70409245793272 M166.4722080988344 90.65713883438147 C165.18268120650387 89.21150849721413, 163.83462953984923 87.96684237307888, 160.50182915008628 83.69490381428041 M165.8038926822366 91.45366424384993 C165.1111636845732 89.75605306625403, 163.8925160795787 88.03869512975253, 160.03472497363109 83.40920214641373 M166.62483146128895 90.89304546612725 C166.1153683750981 86.69314609094077, 165.6564398576685 84.22654383535524, 167.15043559193947 80.45612581150979 M166.46969154614771 91.05465175177287 C166.50018344603342 86.29357478124818, 167.25306607220188 82.18732651789902, 166.6749880994928 79.57384457383584" fill="none" stroke="#282039" stroke-width="3.4" stroke-linecap="round" stroke-linejoin="round"/></g><path d="M78.05590751764575 49.818254996030554 C76.93339576660141 49.05142823662418, 75.09715912582845 48.20050966027037, 71.26449677836602 45.038850414260615 M77.05488732491047 64.95092318540607 C73.9746280939343 65.42425173169632, 70.29762146159317 65.44872579401103, 67.9634351225571 66.23357978242737 M160.34343216436488 40.09045396535519 C161.26589698219303 39.058749164075806, 163.14419164051455 37.31824285316292, 165.6756437380417 34.893994314806555" fill="none" stroke="#282039" stroke-width="2" stroke-linecap="round" stroke-linejoin="round"/></svg>
