<svg xmlns="http://www.w3.org/2000/svg" width="240" height="240" viewBox="0 0 240 240"><g data-part="limbs"><path d="M92 119 C85.23084997627885 137.0258716226245, 81.04909570707629 152.23220961298793, 83.10153749082238 168.11621948685496 M90.9902285406366 118.92188506927342 C85.16027765530161 137.50936573095308, 83.6131988367221 153.6843807458598, 83.75130573141388 167.68896107968874 M148 119 C157.72927696797996 135.66185469434907, 159.3879509239768 151.51238461739072, 153.71563773844392 167.54927242603154 M149.05119940135629 120.04630286898464 C154.04629786598497 138.14762229340462, 156.70572493411913 154.6116281969069, 155.32865707117134 169.50548251119443" fill="none" stroke="#282039" stroke-width="3.4" stroke-linecap="round" stroke-linejoin="round"/><path d="M107.27360523128883 173.3981195426546 C109.67887022325489 180.80189628493076, 109.94053598062787 189.38042303048113, 111.87561644995586 212.48165581887588 M106.69158658417874 174.07600489151665 C108.0817761262158 182.2987218116872, 108.23178301315995 191.2321970380373, 111.9242441284936 213.28832651418634 M111.814334381507 212.15720049872007 C106.92910708015644 213.59915627705448, 100.32786123180038 215.5829762985627, 95.9257245533285 215.6478842725751 M110.76596280150247 213.55345772508554 C107.21352045798012 213.72747205077377, 102.64422287907247 215.21171086052118, 96.81682286168007 216.47105573283594 M135.00306907678024 174.947405258473 C133.61637649200054 186.64950883007907, 132.8371758289555 195.75441634106747, 129.9480416067876 213.31640124386178 M135.07115049692803 174.30563721251673 C133.8352673768917 187.0747974237755, 131.31843329108452 200.88375030982792, 130.84804241242819 213.75529032093473 M129.84963154338587 212.08330406233728 C134.45677167013548 212.97668316174193, 137.3249225017281 214.03708869586785, 144.4859873799321 216.7375411496432 M131.09601696027286 213.65713488639744 C134.8536372596359 213.7077795687728, 140.31384364738545 215.53713785085972, 145.25440425589437 216.5254231478372" fill="none" stroke="#282039" stroke-width="3.4" stroke-linecap="round" stroke-linejoin="round"/></g><path d="M88 173 C86.72063508071005 118.10931428832313, 102.043344978864 93.97214141053458, 116.74399896897376 92.57423133216798 C143.12680709796646 93.77209260625143, 150.68219636318585 121.30064734381935, 152.90469458140433 170.5121389683336 C125.22329961620271 171.96862035681306, 101.12260375581681 173.50010609318315, 86.62683612667024 172.0066704992205" fill="#b6ccb2" stroke="none" stroke-width="0" stroke-linecap="round" stroke-linejoin="round"/><path d="M88 173 C86.2009444180876 119.52133883995316, 99.88047671156626 92.9580106810977, 118.10170832313597 92.76246609650552 M89.20025393404066 171.85765007697046 C90.0175307281129 118.73911007142937, 99.6155913000616 92.53431193984423, 119.34089525712653 89.95495675520971 M120 92 C142.26586329775552 91.95391262335082, 154.71624176738163 120.1063532785823, 152.050708598271 173.55474714003503 M118.8457771126181 92.10700318776071 C141.70977540664995 94.13532106674586, 152.25321288976198 120.30940170026696, 153.09350785685703 172.48775834577157 M153.72040733061732 173.58225622810423 C138.55386617146434 171.87815789662898, 120.97246867381037 175.0277483769566, 86.12758586369455 172.6972263995558 M151.18066007811575 173.04263072591274 C134.22281741220505 173.04593610442132, 116.93601680714637 172.38608808792085, 88.82231855709105 172.33906934242697" fill="none" stroke="#282039" stroke-width="3.4" stroke-linecap="round" stroke-linejoin="round"/><g data-part="face" transform="rotate(8 120 59)"><path d="M121.9798428750263 27.488781931465056 C128.11669571950068 27.322886379172335, 136.72542718868317 30.979197884826274, 141.09258039688942 35.81273033144462 C145.45973360509566 40.64626277806296, 147.62515379317898 49.84121583235817, 148.18276212426372 56.48997661117512 C148.74037045534845 63.13873738999207, 147.93833190270132 70.27030869103908, 144.43823038339784 75.7052950043463 C140.93812886409435 81.14028131765352, 133.39159626912547 87.13942720048539, 127.18215300844278 89.0998944910184 C120.97270974776008 91.06036178155142, 112.70449979798263 90.31813590729932, 107.18157081930163 87.46809874754442 C101.65864184062062 84.61806158778951, 96.69857761960967 77.88037267844551, 94.04457913635676 71.99967153248897 C91.39058065310385 66.11897038653244, 89.78284042962989 58.494418794297275, 91.2575799197842 52.18389187180519 C92.73231940993853 45.8733649493131, 96.47364930823304 38.0191725951473, 102.89301607728271 34.13650999753644 C109.31238284633238 30.253847399925586, 124.41506448392722 29.062935993439226, 129.77378053408228 28.88791628614004 C135.13249658423734 28.712896578840855, 135.48952085567058 32.66093636657788, 135.04531237821305 33.08639175374133 M131.50881595660633 28.229717041221782 C137.53005960730013 29.96340185833557, 143.42271906844917 36.65078450307546, 146.20063402095525 42.741041762449754 C148.97854897346133 48.83129902182405, 149.41587897488395 57.92270462750816, 148.1763056716429 64.77126059746759 C146.93673236840183 71.61981656742702, 143.31545490038735 79.73344875444832, 138.76319420150895 83.83237758220633 C134.21093350263055 87.93130640996435, 127.11526945736148 89.60354036461614, 120.86274147837243 89.36483356401565 C114.61021349938338 89.12612676341517, 105.99379348108307 86.73151766346936, 101.24802632757468 82.40013677860347 C96.50225917406628 78.06875589373757, 93.30164287407145 69.80649301400658, 92.38813855732208 63.37654825482026 C91.47463424057271 56.94660349563394, 92.60582890587862 49.63192020361431, 95.76700042707846 43.82046822348557 C98.92817194827829 38.00901624335683, 105.40116455081142 30.833931911885124, 111.35516768452108 28.507836374047827 C117.30917081823074 26.18174083621053, 128.5314663228912 29.720773756145313, 131.49101922933644 29.863894996461784 C134.4505721357817 30.007016236778256, 129.43725546846534 28.703811735065923, 129.11248512319267 29.366563815946645" fill="#faf6eb" stroke="none" stroke-width="0" stroke-linecap="round" stroke-linejoin="round"/><path d="M121.77874981166659 27.565392322967032 C127.54950533051007 27.516894459560977, 135.17330907653553 31.80624450488737, 139.60404423453457 36.309313123057834 C144.0347793925336 40.81238174122829, 147.73072791936204 47.876523189976794, 148.36316075966084 54.58380403198981 C148.99559359995965 61.29108487400282, 146.80359146193015 70.9383779303076, 143.3986412763273 76.5529981751359 C139.99369109072447 82.1676184199642, 133.89197287756812 86.43050336908948, 127.93345964604379 88.27152550095965 C121.97494641451947 90.11254763282983, 113.43373182193645 90.16040707374549, 107.64756188718135 87.59913096635691 C101.86139195242626 85.03785485896833, 95.90039896157583 78.76347462558488, 93.21644003751324 72.90386885662814 C90.53248111345064 67.0442630876714, 89.92639260681018 58.81931533017316, 91.5438083428058 52.44149635261651 C93.16122407880142 46.06367737505986, 97.71836467991973 38.802150075418076, 102.92093445348698 34.636954991288235 C108.12350422705423 30.471759907158393, 119.39904382054331 28.32211571151791, 122.75922698420926 27.45032584783747 C126.11941014787521 26.57853598415703, 123.02070674493834 28.70561273007413, 123.08203343548264 29.4062158092056 M129.04851368593896 28.35618304053484 C134.68005374741762 29.73231973180107, 141.45598896988577 34.852398463828884, 144.54243744191467 40.52232587977397 C147.62888591394358 46.19225329571906, 148.1783285883317 55.38195914524506, 147.56720451811248 62.37574753620538 C146.95608044789324 69.3695359271657, 145.0326522960972 77.9801641772726, 140.87569302059933 82.48505622553587 C136.71873374510145 86.98994827379914, 128.90554222348328 89.23658894747717, 122.62544886512522 89.40509982578504 C116.34535550676716 89.57361070409291, 108.15411268281863 87.55601751337235, 103.195132870451 83.49612149538311 C98.23615305808337 79.43622547739386, 94.46704038485922 71.25124800545747, 92.87156999091948 65.04572371784953 C91.27609959697975 58.84019943024158, 91.04969274664673 51.9768210899515, 93.62231050681261 46.26297576973547 C96.1949282669785 40.54913044951944, 102.4847229325838 33.8203017919154, 108.30727655191481 30.762651796553353 C114.12983017124583 27.705001801191305, 125.32934089982723 28.13465901140166, 128.5576322227987 27.91707579756318 C131.78592354577017 27.699492583724698, 128.1089654290824 28.689936154060145, 127.67702448974362 29.457152513522477" fill="none" stroke="#282039" stroke-width="3.4" stroke-linecap="round" stroke-linejoin="round"/><path d="M102 50 C106.84593068802108 49.72024146572998, 111.30912558479857 46.86777047769477, 114.10089012626558 44.66728496607393 M126 44 C129.9713667297736 47.57674623386314, 133.71745480739824 49.06100791947296, 138.81539547089488 50.75477556642145" fill="none" stroke="#282039" stroke-width="2" stroke-linecap="round" stroke-linejoin="round"/><path d="M104 59 C107.92832147687052 60.872676683869216, 109.84287371744092 61.29054792365059, 113.10093058655039 59.82034337362275 M127 59 C130.4261258235512 61.78629530509934, 134.1273391168254 60.91984161278233, 136.43882253775374 58.6027199103497" fill="none" stroke="#282039" stroke-width="2" stroke-linecap="round" stroke-linejoin="round"/><path d="M111 78 C117.5440455990533 71.35844523534179, 125.17662185008328 71.24665870293975, 131.10097104683518 77.17340178117156" fill="none" stroke="#282039" stroke-width="2" stroke-linecap="round" stroke-linejoin="round"/></g><g data-part="hands"><path d="M85.56074520313089 168.03804082641906 C85.3685094121152 170.0342912355391, 86.54850248787464 171.50459691282822, 87.0627235309509 176.7083364278852 M84.91514354806648 168.24087882447552 C86.06728327708511 170.79548959137918, 86.41113981125619 173.37115008608197, 86.8004873285971 176.3213453661637 M154.3801841677538 168.10347182586423 C154.33914905344668 169.40997962967066, 154.36869254422243 171.39809374322752, 152.5157450223849 175.32085040512175 M154.7814117435135 168.00710871436166 C154.39417792292204 170.66503866926442, 153.61312411578828 173.21694855842497, 153.06734066289033 176.31574264905464" fill="none" stroke="#282039" stroke-width="3.4" stroke-linecap="round" stroke-linejoin="round"/></g></svg>
